<svg width="436" height="437" viewBox="0 0 436 437" fill="none" xmlns="http://www.w3.org/2000/svg">
<circle cx="217.5" cy="218.5" r="117" stroke="#333333" stroke-width="3"/>
<rect x="334.075" y="39.1838" width="89" height="79" rx="2.5" transform="rotate(45 334.075 39.1838)" stroke="#333333" stroke-width="3"/>
<rect x="347.51" y="160.099" width="74" height="21" rx="10.5" transform="rotate(-45 347.51 160.099)" stroke="#333333" stroke-width="3"/>
<rect x="261.243" y="73.832" width="74" height="21" rx="10.5" transform="rotate(-45 261.243 73.832)" stroke="#333333" stroke-width="3"/>
<rect x="349.631" y="20.799" width="92" height="19" rx="9.5" transform="rotate(45 349.631 20.799)" stroke="#333333" stroke-width="3"/>
<rect x="396.007" y="335.075" width="89" height="79" rx="2.5" transform="rotate(135 396.007 335.075)" stroke="#333333" stroke-width="3"/>
<rect x="275.092" y="348.51" width="74" height="21" rx="10.5" transform="rotate(45 275.092 348.51)" stroke="#333333" stroke-width="3"/>
<rect x="361.359" y="262.243" width="74" height="21" rx="10.5" transform="rotate(45 361.359 262.243)" stroke="#333333" stroke-width="3"/>
<rect x="414.392" y="350.631" width="92" height="19" rx="9.5" transform="rotate(135 414.392 350.631)" stroke="#333333" stroke-width="3"/>
<rect x="101.116" y="398.007" width="89" height="79" rx="2.5" transform="rotate(-135 101.116 398.007)" stroke="#333333" stroke-width="3"/>
<rect x="87.6812" y="277.092" width="74" height="21" rx="10.5" transform="rotate(135 87.6812 277.092)" stroke="#333333" stroke-width="3"/>
<rect x="173.948" y="363.359" width="74" height="21" rx="10.5" transform="rotate(135 173.948 363.359)" stroke="#333333" stroke-width="3"/>
<rect x="85.5599" y="416.392" width="92" height="19" rx="9.5" transform="rotate(-135 85.5599 416.392)" stroke="#333333" stroke-width="3"/>
<rect x="38.1838" y="101.116" width="89" height="79" rx="2.5" transform="rotate(-45 38.1838 101.116)" stroke="#333333" stroke-width="3"/>
<rect x="159.099" y="87.6812" width="74" height="21" rx="10.5" transform="rotate(-135 159.099 87.6812)" stroke="#333333" stroke-width="3"/>
<rect x="72.832" y="173.948" width="74" height="21" rx="10.5" transform="rotate(-135 72.832 173.948)" stroke="#333333" stroke-width="3"/>
<rect x="19.799" y="85.5599" width="92" height="19" rx="9.5" transform="rotate(-45 19.799 85.5599)" stroke="#333333" stroke-width="3"/>
</svg>
