<?xml version="1.0" standalone="no"?>
<!DOCTYPE svg PUBLIC "-//W3C//DTD SVG 20010904//EN"
 "http://www.w3.org/TR/2001/REC-SVG-20010904/DTD/svg10.dtd">
<svg version="1.0" xmlns="http://www.w3.org/2000/svg"
 width="1280.000000pt" height="640.000000pt" viewBox="0 0 1280.000000 640.000000"
 preserveAspectRatio="xMidYMid meet">
<metadata>
Created by potrace 1.15, written by Peter Selinger 2001-2017
</metadata>
<g transform="translate(0.000000,640.000000) scale(0.100000,-0.100000)"
 stroke="none">
<path d="M300 6314 c-88 -36 -144 -65 -161 -83 -37 -40 -67 -125 -89 -255 -38
-224 -45 -372 -44 -891 0 -495 6 -679 44 -1380 30 -547 31 -580 35 -725 3
-150 18 -221 80 -383 l38 -97 1312 0 1312 0 36 93 c84 222 105 406 57 501 -14
28 -36 58 -50 68 -86 62 -458 143 -825 180 -187 19 -845 16 -1030 -4 -77 -9
-143 -14 -148 -11 -20 12 -87 212 -121 363 -73 327 -102 687 -171 2085 -14
280 -25 529 -25 552 l0 43 -57 -1 c-46 -1 -87 -13 -193 -55z"/>
<path d="M12250 6326 c0 -51 -55 -1164 -70 -1431 -48 -809 -93 -1151 -188
-1426 -46 -131 -58 -151 -90 -145 -166 32 -893 43 -1147 18 -365 -37 -739
-118 -825 -180 -14 -10 -36 -40 -50 -68 -48 -95 -27 -281 56 -498 l37 -96
1312 0 1312 0 38 97 c62 162 77 233 80 383 4 145 7 217 30 635 85 1531 68
2334 -53 2572 -29 56 -44 66 -197 127 -108 43 -151 56 -192 56 l-53 0 0 -44z"/>
<path d="M2810 4360 l0 -250 3575 0 3575 0 0 250 0 250 -3575 0 -3575 0 0
-250z"/>
<path d="M3424 3468 c3 -304 11 -1124 17 -1823 5 -698 11 -1346 12 -1440 l2
-170 123 -3 c67 -1 122 -1 122 1 0 3 45 409 100 903 253 2260 340 3047 340
3065 0 18 -11 19 -361 19 l-362 0 7 -552z"/>
<path d="M8620 4017 c0 -2 86 -770 190 -1708 105 -937 204 -1828 221 -1979 16
-151 32 -281 34 -287 3 -10 37 -13 123 -13 l119 0 7 672 c17 1661 26 2668 26
2981 l0 337 -360 0 c-198 0 -360 -1 -360 -3z"/>
<path d="M473 1748 c4 -354 10 -884 15 -1178 l7 -535 96 -3 97 -3 6 33 c5 30
41 266 166 1093 22 143 67 440 100 660 33 220 67 439 74 488 l13 87 -291 0
-291 0 8 -642z"/>
<path d="M1985 2348 c4 -24 84 -554 179 -1178 l172 -1135 96 -3 96 -3 6 213
c5 179 26 1890 26 2086 l0 62 -291 0 -290 0 6 -42z"/>
<path d="M10240 2333 c-1 -195 21 -1934 26 -2101 l6 -203 96 3 96 3 172 1135
c95 624 175 1154 179 1178 l6 42 -290 0 -291 0 0 -57z"/>
<path d="M11756 2373 c2 -10 19 -124 38 -253 20 -129 58 -383 86 -565 27 -181
88 -584 135 -895 47 -311 88 -580 91 -598 l6 -33 97 3 96 3 7 535 c5 294 11
824 15 1178 l8 642 -292 0 c-272 0 -291 -1 -287 -17z"/>
</g>
</svg>
